<svg xmlns="http://www.w3.org/2000/svg" width="33.335" height="33.335">
    <path fill="#FFF" fill-rule="evenodd" d="M17.347 23.248l-.029.014c-1.537.742-3.25 1.17-5.064 1.17-6.511 0-11.808-5.36-11.808-11.949 0-4.932 2.968-9.175 7.191-10.997.019-.008.035-.017.054-.023 1.405-.598 2.946-.93 4.563-.93 6.512 0 11.809 5.36 11.809 11.95 0 4.742-2.751 8.836-6.716 10.765zm.25-1.833c2.511-1.544 4.311-4.138 4.825-7.174-.696-.204-3.395-.865-6.807-.179 1.236 3.216 1.768 5.913 1.982 7.353zm-1.394.726c-.147-1.142-.642-4.115-2.04-7.714-.619.189-1.252.422-1.896.717-4.281 1.963-5.997 4.835-6.376 5.559 1.756 1.395 3.963 2.235 6.363 2.235 1.399 0 2.731-.286 3.949-.797zm-14.28-9.658c0 2.785 1.088 5.312 2.848 7.188.702-1.206 2.671-3.956 6.888-5.888.658-.302 1.304-.541 1.937-.742-.276-.629-.577-1.27-.911-1.921-.07-.136-.134-.252-.203-.384-3.487 1.104-6.506 1.362-8.51 1.362-.888 0-1.569-.049-2.015-.093-.007.16-.034.315-.034.478zm.207-1.966c1.318.123 5.051.277 9.641-1.122C9.823 5.826 8.37 3.873 7.74 3.093c-2.875 1.422-4.989 4.156-5.61 7.424zm10.124-8.49c-1.074 0-2.111.168-3.086.478.792 1.026 2.206 3.041 4.027 6.408 4.05-1.539 5.305-3.656 5.648-4.476-1.79-1.504-4.086-2.41-6.589-2.41zm7.701 3.51c-.667 1.244-2.28 3.228-6.06 4.705l.099.189c.389.756.725 1.493 1.038 2.217 3.541-.788 6.405-.222 7.538.082.002-.083.017-.163.017-.247 0-2.667-1.001-5.097-2.632-6.946z"/>
</svg>
