<svg xmlns="http://www.w3.org/2000/svg" width="17.348" height="32.013">
    <path fill="#FFF" fill-rule="evenodd" d="M8.117 2.046c.089 0 .141.003.141.003h1.961l-.011 2.261H8.261c-1.072 0-1.047.918-1.047.918v3.583h3.792l-.529 2.257H7.201v11.296h-2.25l-.002-11.296h-2.99l-.006-2.257h2.998V5.298c0-3.062 2.535-3.252 3.166-3.252m2.102.003h.003M8.117.539c-.54 0-1.595.09-2.594.694-.947.571-2.074 1.74-2.074 4.065v2.006H1.953c-.399 0-.781.16-1.064.443-.281.284-.439.668-.437 1.069l.005 2.258c.003.829.675 1.501 1.502 1.501h1.488l.002 9.789c0 .833.672 1.507 1.502 1.507h2.25c.829 0 1.502-.674 1.502-1.507v-9.789h1.774c.666 0 1.253-.441 1.441-1.082l.529-2.257c.134-.456.045-.948-.239-1.328-.283-.38-.729-.604-1.202-.604H8.715V5.817h1.493c.827 0 1.499-.671 1.502-1.501l.011-2.183.002-.084c0-.832-.671-1.506-1.501-1.506H8.3C8.257.54 8.195.539 8.117.539z"/>
</svg>
