<svg xmlns="http://www.w3.org/2000/svg" width="30.652" height=".67cm">
    <path fill="#FFF" fill-rule="evenodd" d="M15.544 1.73c1.163 0 2.212.475 2.951 1.237.92-.177 1.787-.501 2.566-.949-.302.913-.943 1.68-1.777 2.165.816-.096 1.597-.305 2.322-.618-.543.784-1.227 1.475-2.017 2.027.007.167.011.337.011.505 0 5.174-4.066 11.139-11.502 11.139-2.282 0-4.408-.65-6.196-1.76.316.037.637.055.964.055 1.893 0 3.637-.625 5.021-1.676-1.77-.031-3.264-1.163-3.776-2.718.246.046.5.071.761.071.367 0 .725-.048 1.064-.138-1.849-.358-3.243-1.94-3.243-3.838v-.05c.546.294 1.169.47 1.832.49-1.085-.703-1.799-1.899-1.799-3.258 0-.718.2-1.39.548-1.966 1.993 2.365 4.972 3.924 8.332 4.089-.069-.286-.105-.588-.105-.892 0-2.163 1.81-3.915 4.043-3.915m6.062 1.835h.003M15.544.326c-2.762 0-5.05 2.015-5.402 4.618-2.26-.453-4.315-1.648-5.792-3.4-.268-.319-.663-.501-1.076-.501-.037 0-.074.002-.111.004-.453.036-.86.288-1.094.676-.491.812-.75 1.743-.75 2.691 0 .633.114 1.25.33 1.827-.23.255-.363.589-.363.941v.05c0 1.376.545 2.652 1.45 3.609-.052.24-.041.493.039.735.312.947.88 1.764 1.616 2.386-.494.109-1.005.165-1.525.165-.276 0-.544-.015-.797-.046-.057-.006-.112-.01-.168-.01-.591 0-1.127.372-1.326.939-.219.621.024 1.311.584 1.658 2.077 1.291 4.477 1.973 6.939 1.973 8.001 0 12.814-6.254 12.908-12.363.655-.541 1.233-1.167 1.724-1.868.179-.235.285-.528.285-.845 0-.478-.239-.901-.604-1.154.158-.541-.023-1.126-.462-1.483-.257-.208-.572-.315-.888-.315-.242 0-.485.062-.703.188-.465.268-.962.479-1.486.632C17.925.722 16.751.326 15.544.326z"/>
</svg>
